#N canvas 84 196 1535 825 36;
#X obj 75 38 inlet~;
#X obj 456 650 outlet~;
#X obj 333 475 vcf~;
#X obj 364 142 osc~;
#X obj 478 349 +~;
#X obj 489 260 *~;
#X text 60 -12 entrée son;
#X obj 356 38 inlet~;
#X obj 645 47 inlet~;
#X obj 848 33 inlet~;
#X obj 1051 41 inlet;
#X text 307 -18 fréquence(Hz);
#X text 607 -47 amplitude mouvement;
#X text 843 -58 centre filtre;
#X text 1028 -55 qualité du filtre;
#X text 740 341 combinaison cool : 4 \, 393 \, 499 \, 3;
#X connect 0 0 2 0;
#X connect 2 0 1 0;
#X connect 3 0 5 0;
#X connect 4 0 2 1;
#X connect 5 0 4 0;
#X connect 7 0 3 0;
#X connect 8 0 5 1;
#X connect 9 0 4 1;
#X connect 10 0 2 2;
