#N canvas 1579 488 849 620 36;
#X obj 30 284 outlet~;
#X obj 38 167 line~;
#X msg -42 48 1;
#X obj 28 -76 inlet;
#X msg 96 47 0 1000;
#X connect 1 0 0 0;
#X connect 2 0 1 0;
#X connect 3 0 2 0;
#X connect 3 0 4 0;
#X connect 4 0 1 0;
