#N canvas 1579 488 849 620 36;
#X obj 80 451 outlet~;
#X obj 108 337 line~;
#X obj 92 -95 inlet;
#X msg -29 99 \$1;
#X obj -26 26 float \$1;
#X obj 257 -8 t b b;
#X obj 223 82 float \$2;
#X obj 513 84 float \$3;
#X obj 268 181 pack float float;
#X msg 243 282 \$1 \$2;
#X text 441 -75 \$1=valeur début \$2=valeur fin \$3=temps nécessaire
;
#X connect 1 0 0 0;
#X connect 2 0 4 0;
#X connect 2 0 5 0;
#X connect 3 0 1 0;
#X connect 4 0 3 0;
#X connect 5 0 6 0;
#X connect 5 1 7 0;
#X connect 6 0 8 0;
#X connect 7 0 8 1;
#X connect 8 0 9 0;
#X connect 9 0 1 0;
