#N canvas 605 147 1275 718 10;
#X obj -42 322 dac~;
#X obj 74 47 adc~;
#X obj 161 71 *~;
#X obj 36 194 svf~ 2;
#X floatatom 232 18 5 0 0 0 - - -;
#X obj 190 99 +~;
#X floatatom 233 63 5 0 0 0 - - -;
#X obj 171 -5 osc~ 100;
#X connect 1 0 3 0;
#X connect 2 0 5 0;
#X connect 3 0 0 0;
#X connect 3 0 0 1;
#X connect 4 0 2 1;
#X connect 5 0 3 1;
#X connect 6 0 5 1;
#X connect 7 0 2 0;
