#N canvas 784 117 1557 1057 36;
#X obj -391 -142 adc~;
#X obj -231 469 dac~;
#X obj -124 318 nbx 5 14 -1e+37 1e+37 0 0 empty empty empty 0 -8 0
10 -262144 -1 -1 0 256;
#X obj -180 120 nbx 5 14 -1e+37 1e+37 0 0 empty empty empty 0 -8 0
10 -262144 -1 -1 1 256;
#X obj -284 318 nbx 5 14 -1e+37 1e+37 0 0 empty empty empty 0 -8 0
10 -262144 -1 -1 0 256;
#X obj -63 317 nbx 5 14 -1e+37 1e+37 0 0 empty empty empty 0 -8 0 10
-262144 -1 -1 0 256;
#X obj -296 362 my_whawha~;
#X obj -24 -28 bonk~;
#X obj -269 149 *~;
#X obj -28 244 snapshot~;
#X obj -41 165 metro 100;
#X obj -17 129 tgl 15 0 empty empty empty 17 7 0 10 -262144 -1 -1 1
1;
#X floatatom 71 320 5 0 0 0 - - -;
#X obj 110 -78 bng 15 250 50 0 empty empty empty 17 7 0 10 -262144
-1 -1;
#X obj -176 45 rampe_evenmentielle 10 0 5000;
#X connect 0 0 6 0;
#X connect 0 0 7 0;
#X connect 2 0 6 3;
#X connect 3 0 8 1;
#X connect 4 0 6 1;
#X connect 5 0 6 4;
#X connect 6 0 1 0;
#X connect 7 0 14 0;
#X connect 8 0 6 2;
#X connect 8 0 9 0;
#X connect 9 0 12 0;
#X connect 10 0 9 0;
#X connect 11 0 10 0;
#X connect 13 0 14 0;
#X connect 14 0 8 0;
